<mxfile host="app.diagrams.net" modified="2023-08-23T00:17:29.883Z" agent="Mozilla/5.0 (Windows NT 10.0; Win64; x64) AppleWebKit/537.36 (KHTML, like Gecko) Chrome/116.0.0.0 Safari/537.36 Edg/116.0.1938.54" version="21.6.9" etag="ztlf9RbrMLN7l-3mb0AZ" type="github">
  <diagram name="Page-1" id="qgRR-f2lNyZzkqXMCMu_">
    <mxGraphModel>
      <root>
        <mxCell id="0" />
        <mxCell id="1" parent="0" />
      </root>
    </mxGraphModel>
  </diagram>
</mxfile>
